<?xml version="1.0" standalone="no"?><!DOCTYPE svg PUBLIC "-//W3C//DTD SVG 1.1//EN" "http://www.w3.org/Graphics/SVG/1.1/DTD/svg11.dtd"><svg t="1733216352779" class="icon" viewBox="0 0 1024 1024" version="1.1" xmlns="http://www.w3.org/2000/svg" p-id="1542" xmlns:xlink="http://www.w3.org/1999/xlink" width="200" height="200"><path d="M901.215832 738.701501C935.954767 712.547475 958.315461 671.41977 958.315461 624.701891c0-79.360499-64.38682-143.747319-143.747319-143.747319h-28.190447C813.170599 457.395984 830.540066 423.455644 830.540066 383.326184c0-70.376292-57.399103-125.978553-127.775395-125.978553h-11.729381C698.372392 237.183077 702.764671 215.820628 702.764671 191.663092c0-105.813999-85.849093-191.663092-191.663092-191.663092-10.481575 0-20.464028 1.497368-30.186937 2.994736C499.721583 30.985533 511.101579 62.929382 511.101579 95.831546c0 88.344707-71.374537 159.719244-159.719243 159.719244h-31.943849c-70.376292 0-127.775395 57.399103-127.775395 125.978553 0 38.432443 17.469292 72.372782 44.162371 95.831546H207.635017c-79.360499 1.796841-143.747319 68.080328-143.74732 147.341002 0 46.677949 22.460519 87.845584 57.13956 114.059505C52.407877 749.682199 0 808.57867 0 880.252681c0 79.460324 64.38682 143.747319 143.747319 143.747319h734.70852c79.360499 0 143.747319-64.38682 143.74732-143.747319 0-71.674011-52.308052-130.570482-120.987327-141.55118zM383.326184 512.898421c35.437707 0 63.887697 28.44999 63.887698 63.887697s-28.44999 63.887697-63.887698 63.887698-63.887697-28.350166-63.887697-63.887698 28.549815-63.887697 63.887697-63.887697z m318.440242 277.512185c-22.759992 55.702086-118.591538 105.813999-190.664847 105.813999-73.850185 0-169.661766-50.151842-190.624917-105.813999-4.032911-10.381751 3.953051-21.961396 15.532697-21.961396h350.38409c11.379996 0 19.365958 11.579645 15.372977 21.961396zM638.876974 640.673816c-35.437707 0-63.887697-28.44999-63.887697-63.887698s28.44999-63.887697 63.887697-63.887697 63.887697 28.44999 63.887697 63.887697-28.350166 63.887697-63.887697 63.887698z" p-id="1543"></path></svg>